<svg width="30" height="30" viewBox="0 0 30 30" fill="none" xmlns="http://www.w3.org/2000/svg">
<path d="M15 0C23.2842 0 30 6.71556 30 15C30 23.2842 23.2842 30 15 30C6.71578 30 0 23.2842 0 15C0 6.71556 6.71578 0 15 0Z" fill="#2E3238"/>
<path d="M15 5.55545C12.4349 5.55545 12.1133 5.56633 11.106 5.61233C10.1009 5.65811 9.4142 5.81766 8.81353 6.05122C8.19242 6.29255 7.66576 6.61545 7.14065 7.14056C6.61554 7.66567 6.29265 8.19235 6.05131 8.81346C5.81798 9.41413 5.6582 10.1006 5.61242 11.1059C5.56642 12.1135 5.55553 12.4348 5.55553 14.9999C5.55553 17.5648 5.56642 17.8866 5.61242 18.8939C5.6582 19.899 5.81798 20.5857 6.05131 21.1863C6.29265 21.8074 6.61554 22.3341 7.14065 22.859C7.66576 23.3841 8.19242 23.707 8.81353 23.9486C9.4142 24.1819 10.1009 24.3417 11.106 24.3875C12.1133 24.4335 12.4349 24.4443 15 24.4443C17.5649 24.4443 17.8864 24.4335 18.8938 24.3875C19.8991 24.3417 20.5858 24.1819 21.1864 23.9486C21.8075 23.707 22.3342 23.3841 22.8593 22.859C23.3842 22.3341 23.7073 21.8074 23.9486 21.1863C24.182 20.5857 24.3418 19.899 24.3875 18.8939C24.4335 17.8866 24.4444 17.5648 24.4444 14.9999C24.4444 12.435 24.4335 12.1135 24.3875 11.1059C24.3418 10.1006 24.182 9.41413 23.9486 8.81346C23.7073 8.19235 23.3842 7.66567 22.8593 7.14056C22.3342 6.61545 21.8075 6.29255 21.1864 6.05122C20.5858 5.81766 19.8991 5.65811 18.8938 5.61233C17.8864 5.56633 17.5649 5.55545 15 5.55545ZM15 7.25723C17.5218 7.25723 17.8204 7.26678 18.8164 7.31211C19.7371 7.35434 20.2371 7.50813 20.57 7.63746C21.0109 7.80879 21.3255 8.01346 21.656 8.3439C21.9864 8.67435 22.1911 8.989 22.3624 9.42967C22.4918 9.76256 22.6455 10.2626 22.6878 11.1834C22.7331 12.1794 22.7426 12.4781 22.7426 14.9999C22.7426 17.5217 22.7331 17.8203 22.6878 18.8163C22.6455 19.737 22.4918 20.2372 22.3624 20.5699C22.1911 21.0108 21.9864 21.3255 21.656 21.6559C21.3255 21.9863 21.0109 22.191 20.57 22.3623C20.2371 22.4917 19.7371 22.6457 18.8164 22.6875C17.8204 22.733 17.522 22.7426 15 22.7426C12.478 22.7426 12.1793 22.733 11.1835 22.6875C10.2629 22.6457 9.76265 22.4917 9.42998 22.3623C8.98909 22.191 8.67442 21.9863 8.34398 21.6559C8.01353 21.3255 7.80887 21.0108 7.63753 20.5699C7.5082 20.2372 7.35442 19.737 7.3122 18.8163C7.26686 17.8203 7.25731 17.5217 7.25731 14.9999C7.25731 12.4781 7.26686 12.1794 7.3122 11.1834C7.35442 10.2626 7.5082 9.76256 7.63753 9.42967C7.80887 8.989 8.01331 8.67435 8.34398 8.3439C8.67442 8.01346 8.98909 7.80879 9.42998 7.63746C9.76265 7.50813 10.2629 7.35434 11.1835 7.31211C12.1795 7.26678 12.4782 7.25723 15 7.25723Z" fill="#6353CA"/>
<path d="M15 18.1485C13.2613 18.1485 11.8518 16.739 11.8518 15.0003C11.8518 13.2616 13.2613 11.8521 15 11.8521C16.7387 11.8521 18.1482 13.2616 18.1482 15.0003C18.1482 16.739 16.7387 18.1485 15 18.1485ZM15 10.1505C12.3215 10.1505 10.1502 12.3219 10.1502 15.0003C10.1502 17.6788 12.3215 19.8501 15 19.8501C17.6784 19.8501 19.8498 17.6788 19.8498 15.0003C19.8498 12.3219 17.6784 10.1505 15 10.1505Z" fill="#6353CA"/>
<path d="M21.1747 9.95798C21.1747 10.584 20.6673 11.0913 20.0416 11.0913C19.4156 11.0913 18.9082 10.584 18.9082 9.95798C18.9082 9.33198 19.4156 8.82464 20.0416 8.82464C20.6673 8.82464 21.1747 9.33198 21.1747 9.95798Z" fill="#6353CA"/>
</svg>
