<svg width="167" height="38" viewBox="0 0 167 38" fill="none" xmlns="http://www.w3.org/2000/svg">
<path d="M9.455 37.376C6.60367 37.376 4.379 36.624 2.781 35.12C1.183 33.5847 0.384 31.4227 0.384 28.634V2.126H7.716V28.211C7.716 29.2763 7.98233 30.1067 8.515 30.702C9.079 31.266 9.86233 31.548 10.865 31.548C11.241 31.548 11.617 31.501 11.993 31.407C12.4003 31.313 12.7137 31.2033 12.933 31.078L13.262 36.765C12.04 37.1723 10.771 37.376 9.455 37.376ZM29.1396 31.501C30.4556 31.501 31.6149 31.313 32.6176 30.937C33.6516 30.5297 34.6072 29.903 35.4846 29.057L39.3856 33.287C37.0042 36.013 33.5262 37.376 28.9516 37.376C26.1002 37.376 23.5779 36.8277 21.3846 35.731C19.1912 34.603 17.4992 33.052 16.3086 31.078C15.1179 29.104 14.5226 26.8637 14.5226 24.357C14.5226 21.8817 15.1022 19.657 16.2616 17.683C17.4522 15.6777 19.0659 14.1267 21.1026 13.03C23.1706 11.902 25.4892 11.338 28.0586 11.338C30.4712 11.338 32.6646 11.855 34.6386 12.889C36.6126 13.8917 38.1792 15.3643 39.3386 17.307C40.5292 19.2183 41.1246 21.49 41.1246 24.122L22.4186 27.741C22.9512 28.9943 23.7816 29.9343 24.9096 30.561C26.0689 31.1877 27.4789 31.501 29.1396 31.501ZM28.0586 16.884C26.2099 16.884 24.7059 17.4793 23.5466 18.67C22.3872 19.8607 21.7762 21.5057 21.7136 23.605L34.0276 21.208C33.6829 19.892 32.9779 18.8423 31.9126 18.059C30.8472 17.2757 29.5626 16.884 28.0586 16.884ZM61.4385 37L55.8925 29.245L50.1585 37H42.1685L51.8975 24.263L42.4975 11.714H50.7225L56.0805 19.093L61.5795 11.714H69.3815L59.9815 24.075L69.7575 37H61.4385ZM73.3166 11.714H80.6486V37H73.3166V11.714ZM76.9826 8.189C75.6353 8.189 74.5386 7.79733 73.6926 7.014C72.8466 6.23067 72.4236 5.25933 72.4236 4.1C72.4236 2.94066 72.8466 1.96933 73.6926 1.186C74.5386 0.402664 75.6353 0.0109972 76.9826 0.0109972C78.33 0.0109972 79.4266 0.386998 80.2726 1.139C81.1186 1.891 81.5416 2.831 81.5416 3.959C81.5416 5.181 81.1186 6.19933 80.2726 7.014C79.4266 7.79733 78.33 8.189 76.9826 8.189ZM96.5243 37.376C93.673 37.376 91.4483 36.624 89.8503 35.12C88.2523 33.5847 87.4533 31.4227 87.4533 28.634V2.126H94.7853V28.211C94.7853 29.2763 95.0517 30.1067 95.5843 30.702C96.1483 31.266 96.9317 31.548 97.9343 31.548C98.3103 31.548 98.6863 31.501 99.0623 31.407C99.4697 31.313 99.783 31.2033 100.002 31.078L100.331 36.765C99.1093 37.1723 97.8403 37.376 96.5243 37.376ZM115.504 37.376C112.841 37.376 110.444 36.8277 108.313 35.731C106.214 34.603 104.569 33.052 103.378 31.078C102.187 29.104 101.592 26.8637 101.592 24.357C101.592 21.8503 102.187 19.61 103.378 17.636C104.569 15.662 106.214 14.1267 108.313 13.03C110.444 11.902 112.841 11.338 115.504 11.338C118.167 11.338 120.549 11.902 122.648 13.03C124.747 14.1267 126.392 15.662 127.583 17.636C128.774 19.61 129.369 21.8503 129.369 24.357C129.369 26.8637 128.774 29.104 127.583 31.078C126.392 33.052 124.747 34.603 122.648 35.731C120.549 36.8277 118.167 37.376 115.504 37.376ZM115.504 31.36C117.384 31.36 118.919 30.7333 120.11 29.48C121.332 28.1953 121.943 26.4877 121.943 24.357C121.943 22.2263 121.332 20.5343 120.11 19.281C118.919 17.9963 117.384 17.354 115.504 17.354C113.624 17.354 112.073 17.9963 110.851 19.281C109.629 20.5343 109.018 22.2263 109.018 24.357C109.018 26.4877 109.629 28.1953 110.851 29.48C112.073 30.7333 113.624 31.36 115.504 31.36ZM149.498 35.778C148.777 36.3107 147.884 36.718 146.819 37C145.785 37.2507 144.704 37.376 143.576 37.376C140.536 37.376 138.202 36.6083 136.573 35.073C134.943 33.5377 134.129 31.2817 134.129 28.305V6.121H141.461V12.278H147.712V17.918H141.461V28.211C141.461 29.2763 141.727 30.1067 142.26 30.702C142.792 31.266 143.56 31.548 144.563 31.548C145.691 31.548 146.693 31.2347 147.571 30.608L149.498 35.778Z" fill="#5E48E8"/>
<path d="M159.425 37.56C157.512 37.56 155.902 36.9067 154.595 35.6C153.288 34.2933 152.635 32.66 152.635 30.7C152.635 28.6933 153.288 27.0833 154.595 25.87C155.902 24.61 157.512 23.98 159.425 23.98C161.338 23.98 162.948 24.61 164.255 25.87C165.562 27.0833 166.215 28.6933 166.215 30.7C166.215 32.66 165.562 34.2933 164.255 35.6C162.948 36.9067 161.338 37.56 159.425 37.56Z" fill="#F9A0DE"/>
</svg>
