<svg width="140" height="144" viewBox="0 0 140 144" fill="none" xmlns="http://www.w3.org/2000/svg">
<path d="M70 144C108.597 144 140 111.7 140 72C140 32.3002 108.597 0 70 0C31.4029 0 0 32.3002 0 72C0 111.7 31.4029 144 70 144ZM70 7.19413C104.743 7.19413 133.006 36.2643 133.006 72C133.006 107.736 104.743 136.806 70 136.806C35.2569 136.806 6.99429 107.736 6.99429 72C6.99429 36.2643 35.2569 7.19413 70 7.19413Z" fill="#F9A0DE"/>
<path d="M58.9519 102.656C59.6085 103.331 60.4935 103.713 61.4356 103.713C62.3492 103.713 63.2342 103.331 63.8908 102.656L105.999 59.5791C106.656 58.9037 107.027 57.9935 107.027 57.0244C107.027 56.0848 106.656 55.1452 105.999 54.4698L93.2668 41.3148C91.8965 39.9054 89.6983 39.9054 88.328 41.2855L61.4927 68.7406L51.7293 58.6395C51.0727 57.9641 50.1877 57.5824 49.2456 57.5824C48.332 57.5824 47.447 57.9641 46.7904 58.6395L34.0009 71.7357C33.3443 72.4111 32.9731 73.3213 32.9731 74.2904C32.9731 75.23 33.3443 76.1696 34.0009 76.845L58.9519 102.656ZM49.2456 66.274L59.0376 76.4045C60.4079 77.814 62.6061 77.814 63.9764 76.4339L90.8116 48.9788L98.6053 57.0244L61.4642 95.0212L41.4234 74.2904L49.2456 66.274Z" fill="#F9A0DE"/>
</svg>
