<svg width="30" height="30" viewBox="0 0 30 30" fill="none" xmlns="http://www.w3.org/2000/svg">
<path fill-rule="evenodd" clip-rule="evenodd" d="M30 15C30 23.2842 23.2844 30 15 30C6.71556 30 0 23.2842 0 15C0 6.71556 6.71556 0 15 0C23.2844 0 30 6.71556 30 15Z" fill="#2E3238"/>
<path d="M11.9689 23.6387C19.2956 23.6387 23.3022 17.5691 23.3022 12.306C23.3022 12.1336 23.2978 11.9618 23.2911 11.7911C24.0689 11.2289 24.7445 10.5273 25.2778 9.72888C24.5645 10.0458 23.7956 10.2596 22.9911 10.3558C23.8134 9.86291 24.4445 9.08245 24.7422 8.15245C23.9711 8.6089 23.12 8.94067 22.2134 9.11934C21.4845 8.34511 20.4511 7.86089 19.3045 7.86089C17.1045 7.86089 15.3222 9.64467 15.3222 11.8436C15.3222 12.1562 15.3556 12.4602 15.4245 12.7518C12.1134 12.5853 9.18002 11.0005 7.21557 8.59045C6.87335 9.17867 6.67558 9.8629 6.67558 10.5922C6.67558 11.9742 7.37779 13.194 8.4489 13.9078C7.79557 13.8876 7.18001 13.708 6.64446 13.4093C6.64223 13.426 6.64224 13.4427 6.64224 13.4602C6.64224 15.3893 8.01557 16.9998 9.83779 17.3651C9.50446 17.456 9.15112 17.5051 8.7889 17.5051C8.53112 17.5051 8.28223 17.4798 8.04001 17.4333C8.54667 19.0158 10.0178 20.1673 11.76 20.1998C10.3978 21.268 8.68002 21.9047 6.81336 21.9047C6.49336 21.9047 6.17557 21.8865 5.86446 21.8496C7.62669 22.9791 9.72002 23.6387 11.9689 23.6387Z" fill="#6353CA"/>
</svg>
