<svg width="30" height="30" viewBox="0 0 30 30" fill="none" xmlns="http://www.w3.org/2000/svg">
<path d="M30 15C30 23.2842 23.2842 30 15 30C6.71579 30 0 23.2842 0 15C0 6.71579 6.71579 9.53674e-06 15 9.53674e-06C23.2842 9.53674e-06 30 6.71579 30 15Z" fill="#2E3238"/>
<path d="M16.1607 12.954C16.4069 12.6773 16.61 12.3962 16.8631 12.1578C17.6409 11.4247 18.5611 11.0547 19.6353 11.0638C20.2258 11.0687 20.8096 11.1113 21.3787 11.276C22.6807 11.6524 23.4373 12.5486 23.798 13.8204C24.0687 14.7742 24.1184 15.7535 24.1202 16.7358C24.1238 18.808 24.1142 20.88 24.1187 22.9522C24.1191 23.1462 24.0649 23.1971 23.8738 23.1953C22.8064 23.1866 21.7387 23.1864 20.6713 23.1958C20.4836 23.1973 20.4429 23.1391 20.4436 22.9618C20.4496 20.99 20.4509 19.0184 20.4447 17.0467C20.4429 16.5527 20.4115 16.0589 20.2729 15.5784C20.0175 14.6935 19.3842 14.2427 18.4571 14.2915C17.1911 14.3584 16.5329 14.9853 16.3716 16.2724C16.3329 16.58 16.3147 16.8875 16.3149 17.1973C16.3167 19.1149 16.3129 21.0324 16.32 22.9498C16.3207 23.1411 16.2729 23.1975 16.0775 23.1958C15.0024 23.1862 13.9269 23.1873 12.8518 23.1949C12.6796 23.1962 12.6296 23.1498 12.6298 22.9753C12.6347 19.1791 12.6347 15.3826 12.6296 11.5862C12.6293 11.3984 12.6909 11.3549 12.8684 11.3562C13.8896 11.3638 14.9109 11.3647 15.9318 11.3555C16.1198 11.354 16.1682 11.4146 16.164 11.5926C16.1536 12.0462 16.1607 12.5002 16.1607 12.954Z" fill="#6353CA"/>
<path d="M10.3118 17.292C10.3118 19.17 10.3086 21.0482 10.3162 22.9264C10.3171 23.1351 10.2651 23.1982 10.0491 23.1957C8.98219 23.184 7.91486 23.1868 6.84775 23.1942C6.67686 23.1955 6.6253 23.1526 6.62553 22.976C6.63064 19.1733 6.63019 15.3706 6.62642 11.568C6.62619 11.4106 6.66442 11.3546 6.83153 11.3555C7.91397 11.3626 8.99664 11.3646 10.0791 11.3544C10.2871 11.3522 10.3155 11.4331 10.3151 11.6113C10.31 13.5049 10.3118 15.3984 10.3118 17.292Z" fill="#6353CA"/>
<path d="M10.6062 7.5878C10.6071 8.76692 9.64997 9.72758 8.47375 9.72803C7.3122 9.72847 6.34708 8.76691 6.3433 7.60602C6.3393 6.43247 7.30397 5.46602 8.47797 5.46713C9.64397 5.46825 10.6049 6.4258 10.6062 7.5878Z" fill="#6353CA"/>
</svg>
