<svg width="30" height="30" viewBox="0 0 30 30" fill="none" xmlns="http://www.w3.org/2000/svg">
<path d="M30 15C30 23.2842 23.2842 30 15 30C6.71578 30 0 23.2842 0 15C0 6.71578 6.71578 0 15 0C23.2842 0 30 6.71578 30 15Z" fill="#2E3238"/>
<path d="M23.4051 10.0434C23.4053 9.95629 23.4027 9.95296 23.3116 9.95385C23.0918 9.95585 22.8745 9.92962 22.6585 9.89696C21.8736 9.77851 19.328 8.44317 18.8973 6.25873C18.8887 6.21606 18.7927 5.67407 18.7938 5.44318C18.7945 5.33985 18.7925 5.33962 18.6907 5.33807C18.6671 5.33763 18.6436 5.33807 18.62 5.33807C17.624 5.33807 16.6278 5.3374 15.6316 5.33829C15.4309 5.33851 15.4591 5.3134 15.4591 5.51473C15.4585 9.83473 15.4585 14.155 15.4593 18.4752C15.4593 18.6363 15.4547 18.7972 15.4265 18.9552C15.2762 19.791 14.848 20.4454 14.1233 20.8923C13.4956 21.2794 12.814 21.3898 12.0905 21.2467C11.8625 21.2016 11.6485 21.1156 11.4342 21.0307C11.4167 21.0147 11.3993 20.999 11.382 20.9832C11.31 20.9227 11.2307 20.873 11.1533 20.8194C10.2311 20.1807 9.79379 19.2943 9.9269 18.1856C10.062 17.061 10.7091 16.2974 11.7751 15.9041C12.0931 15.7867 12.4282 15.7383 12.7682 15.7565C12.9871 15.7681 13.2051 15.7958 13.4173 15.8563C13.4907 15.8772 13.5305 15.8512 13.5342 15.7734C13.5356 15.7458 13.5362 15.7185 13.5362 15.6912C13.5365 14.9156 13.5073 13.2216 13.5033 13.2178C13.5049 12.9945 13.5049 12.7712 13.5089 12.5481C13.5102 12.4836 13.4782 12.4725 13.424 12.4661C13.0222 12.4183 12.6205 12.4094 12.2162 12.439C11.6578 12.4798 11.1167 12.5943 10.5907 12.7836C9.75156 13.0854 9.01512 13.5518 8.37934 14.1747C7.83334 14.7096 7.40423 15.3281 7.08956 16.0252C6.78823 16.6923 6.61579 17.3927 6.56823 18.1216C6.54734 18.4378 6.55134 18.7552 6.58068 19.0725C6.62112 19.511 6.70423 19.9398 6.83757 20.3587C7.2209 21.5625 7.91735 22.5501 8.90579 23.3334C9.00623 23.4132 9.10267 23.5005 9.22312 23.5523C9.27356 23.597 9.32401 23.6418 9.37445 23.6865C9.53445 23.8072 9.70579 23.9103 9.8849 23.9987C10.992 24.5456 12.1582 24.7678 13.3876 24.6178C14.9825 24.423 16.3113 23.7163 17.3573 22.4985C18.342 21.3523 18.8205 20.0067 18.8291 18.5027C18.8416 16.3512 18.832 14.1996 18.8333 12.0481C18.8333 11.9967 18.8038 11.9238 18.8605 11.8981C18.9047 11.8778 18.9491 11.9365 18.9907 11.9639C19.7916 12.4899 20.6549 12.8701 21.59 13.0841C22.1342 13.2085 22.684 13.2841 23.2438 13.2832C23.4205 13.283 23.4438 13.2741 23.444 13.0992C23.4451 12.335 23.4049 10.2463 23.4051 10.0434Z" fill="#6353CA"/>
</svg>
